<svg id="Layer_1" viewBox="0 0 32 32" xmlns="http://www.w3.org/2000/svg" data-name="Layer 1"><g fill="rgb(0,0,0)"><path d="m16 1a15 15 0 1 0 15 15 15.017 15.017 0 0 0 -15-15zm0 2a12.981 12.981 0 0 1 10.635 20.452 15.258 15.258 0 0 0 -10.635-4.452 15.258 15.258 0 0 0 -10.635 4.452 12.981 12.981 0 0 1 10.635-20.452zm0 26a13.257 13.257 0 0 1 -9.357-4 13.248 13.248 0 0 1 9.357-4 13.25 13.25 0 0 1 9.357 4 13.262 13.262 0 0 1 -9.357 4z"></path><path d="m16 17a5 5 0 1 0 -5-5 5.006 5.006 0 0 0 5 5zm0-8a3 3 0 1 1 -3 3 3 3 0 0 1 3-3z"></path></g></svg>